# MagicaVoxel @ Ephtracy

# group
o 

# material
mtllib Stopwatch - 3.mtl
usemtl palette

# normals
vn -1 0 0
vn 1 0 0
vn 0 0 1
vn 0 0 -1
vn 0 -1 0
vn 0 1 0

# texcoords
vt 0.0996094 0.5
vt 0.373047 0.5
vt 0.744141 0.5
vt 0.748047 0.5

# verts
v -0.65 -0.9 0.2
v -0.65 -0.9 -0.2
v -0.65 -0.2 0.2
v -0.65 -0.2 -0.2
v -0.55 -1 0.2
v -0.55 -1 -0.2
v -0.55 -0.9 0.2
v -0.55 -0.9 -0.2
v -0.55 -0.2 0.2
v -0.55 -0.2 -0.2
v -0.55 -0.1 0.2
v -0.55 -0.1 -0.2
v -0.45 -1.1 0.2
v -0.45 -1.1 -0.2
v -0.45 -1 0.2
v -0.45 -1 -0.2
v -0.45 -0.1 0.2
v -0.45 -0.1 -0.2
v -0.45 0 0.2
v -0.45 0 -0.2
v -0.45 0.8 0.1
v -0.45 0.8 -0.1
v -0.45 0.9 0.1
v -0.45 0.9 -0.1
v -0.35 0.1 0.1
v -0.35 0.1 -0.1
v -0.35 0.3 0.1
v -0.35 0.3 -0.1
v -0.25 0 0.1
v -0.25 0 -0.1
v -0.25 0.1 0.1
v -0.25 0.1 -0.1
v -0.25 0.3 0.1
v -0.25 0.3 -0.1
v -0.25 0.4 0.1
v -0.25 0.4 -0.1
v -0.15 -0.6 0.2
v -0.15 -0.6 0.1
v -0.15 -0.3 0.2
v -0.15 -0.3 0.1
v -0.05 -1 0.2
v -0.05 -1 0.1
v -0.05 -1 -0.1
v -0.05 -1 -0.2
v -0.05 -0.9 0.2
v -0.05 -0.9 0.1
v -0.05 -0.9 -0.1
v -0.05 -0.9 -0.2
v -0.05 -0.2 0.2
v -0.05 -0.2 0.1
v -0.05 -0.2 -0.1
v -0.05 -0.2 -0.2
v -0.05 -0.1 0.2
v -0.05 -0.1 0.1
v -0.05 -0.1 -0.1
v -0.05 -0.1 -0.2
v -0.05 0.6 0.1
v -0.05 0.6 -0.1
v -0.05 0.7 0.1
v -0.05 0.7 -0.1
v -0.05 0.8 0.1
v -0.05 0.8 -0.1
v -0.05 1.1 0.1
v -0.05 1.1 -0.1
v 0.05 -0.7 -0.1
v 0.05 -0.7 -0.2
v 0.05 -0.3 -0.1
v 0.05 -0.3 -0.2
v 0.15 0.1 0.1
v 0.15 0.1 -0.1
v 0.15 0.3 0.1
v 0.15 0.3 -0.1
v 0.15 0.7 0.1
v 0.15 0.7 -0.1
v 0.15 0.8 0.1
v 0.15 0.8 -0.1
v 0.35 -1 0.2
v 0.35 -1 0.1
v 0.35 -1 -0.1
v 0.35 -1 -0.2
v 0.35 -0.9 0.2
v 0.35 -0.9 0.1
v 0.35 -0.9 -0.1
v 0.35 -0.9 -0.2
v 0.35 -0.6 0.2
v 0.35 -0.6 0.1
v 0.35 -0.6 -0.1
v 0.35 -0.6 -0.2
v 0.35 -0.5 0.2
v 0.35 -0.5 0.1
v 0.35 -0.5 -0.1
v 0.35 -0.5 -0.2
v 0.35 -0.2 0.2
v 0.35 -0.2 0.1
v 0.35 -0.2 -0.1
v 0.35 -0.2 -0.2
v 0.35 -0.1 0.2
v 0.35 -0.1 0.1
v 0.35 -0.1 -0.1
v 0.35 -0.1 -0.2
v 0.45 -0.9 0.2
v 0.45 -0.9 0.1
v 0.45 -0.9 -0.1
v 0.45 -0.9 -0.2
v 0.45 -0.7 -0.1
v 0.45 -0.7 -0.2
v 0.45 -0.6 0.2
v 0.45 -0.6 0.1
v 0.45 -0.5 0.2
v 0.45 -0.5 0.1
v 0.45 -0.5 -0.1
v 0.45 -0.5 -0.2
v 0.45 -0.2 0.2
v 0.45 -0.2 0.1
v 0.45 -0.2 -0.1
v 0.45 -0.2 -0.2
v -0.45 -0.9 0.2
v -0.45 -0.9 0.1
v -0.45 -0.9 -0.1
v -0.45 -0.9 -0.2
v -0.45 -0.7 0.2
v -0.45 -0.7 0.1
v -0.45 -0.6 -0.1
v -0.45 -0.6 -0.2
v -0.45 -0.5 0.2
v -0.45 -0.5 0.1
v -0.45 -0.5 -0.1
v -0.45 -0.5 -0.2
v -0.45 -0.2 0.2
v -0.45 -0.2 0.1
v -0.45 -0.2 -0.1
v -0.45 -0.2 -0.2
v -0.35 -1 0.2
v -0.35 -1 0.1
v -0.35 -1 -0.1
v -0.35 -1 -0.2
v -0.35 -0.9 0.2
v -0.35 -0.9 0.1
v -0.35 -0.9 -0.1
v -0.35 -0.9 -0.2
v -0.35 -0.6 0.2
v -0.35 -0.6 0.1
v -0.35 -0.6 -0.1
v -0.35 -0.6 -0.2
v -0.35 -0.5 0.2
v -0.35 -0.5 0.1
v -0.35 -0.5 -0.1
v -0.35 -0.5 -0.2
v -0.35 -0.2 0.2
v -0.35 -0.2 0.1
v -0.35 -0.2 -0.1
v -0.35 -0.2 -0.2
v -0.35 -0.1 0.2
v -0.35 -0.1 0.1
v -0.35 -0.1 -0.1
v -0.35 -0.1 -0.2
v -0.15 0.1 0.1
v -0.15 0.1 -0.1
v -0.15 0.3 0.1
v -0.15 0.3 -0.1
v -0.15 0.8 0.1
v -0.15 0.8 -0.1
v -0.15 0.9 0.1
v -0.15 0.9 -0.1
v -0.05 -0.7 0.2
v -0.05 -0.7 0.1
v -0.05 -0.3 0.2
v -0.05 -0.3 0.1
v 0.05 -1 0.2
v 0.05 -1 0.1
v 0.05 -1 -0.1
v 0.05 -1 -0.2
v 0.05 -0.9 0.2
v 0.05 -0.9 0.1
v 0.05 -0.9 -0.1
v 0.05 -0.9 -0.2
v 0.05 -0.2 0.2
v 0.05 -0.2 0.1
v 0.05 -0.2 -0.1
v 0.05 -0.2 -0.2
v 0.05 -0.1 0.2
v 0.05 -0.1 0.1
v 0.05 -0.1 -0.1
v 0.05 -0.1 -0.2
v 0.05 0.9 0.1
v 0.05 0.9 -0.1
v 0.05 1 0.1
v 0.05 1 -0.1
v 0.15 -0.6 -0.1
v 0.15 -0.6 -0.2
v 0.15 -0.3 -0.1
v 0.15 -0.3 -0.2
v 0.25 0 0.1
v 0.25 0 -0.1
v 0.25 0.1 0.1
v 0.25 0.1 -0.1
v 0.25 0.3 0.1
v 0.25 0.3 -0.1
v 0.25 0.4 0.1
v 0.25 0.4 -0.1
v 0.25 0.6 0.1
v 0.25 0.6 -0.1
v 0.25 0.9 0.1
v 0.25 0.9 -0.1
v 0.25 1 0.1
v 0.25 1 -0.1
v 0.25 1.1 0.1
v 0.25 1.1 -0.1
v 0.35 0.1 0.1
v 0.35 0.1 -0.1
v 0.35 0.3 0.1
v 0.35 0.3 -0.1
v 0.45 -1.1 0.2
v 0.45 -1.1 -0.2
v 0.45 -1 0.2
v 0.45 -1 -0.2
v 0.45 -0.1 0.2
v 0.45 -0.1 -0.2
v 0.45 0 0.2
v 0.45 0 -0.2
v 0.55 -1 0.2
v 0.55 -1 -0.2
v 0.55 -0.9 0.2
v 0.55 -0.9 -0.2
v 0.55 -0.2 0.2
v 0.55 -0.2 -0.2
v 0.55 -0.1 0.2
v 0.55 -0.1 -0.2
v 0.65 -0.9 0.2
v 0.65 -0.9 -0.2
v 0.65 -0.2 0.2
v 0.65 -0.2 -0.2
v -0.65 -0.9 0.2
v -0.65 -0.2 0.2
v -0.55 -1 0.2
v -0.55 -0.9 0.2
v -0.55 -0.2 0.2
v -0.55 -0.1 0.2
v -0.45 -1.1 0.2
v -0.45 -1 0.2
v -0.45 -0.9 0.2
v -0.45 -0.7 0.2
v -0.45 -0.5 0.2
v -0.45 -0.2 0.2
v -0.45 -0.1 0.2
v -0.45 0 0.2
v -0.35 -1 0.2
v -0.35 -0.9 0.2
v -0.35 -0.6 0.2
v -0.35 -0.5 0.2
v -0.35 -0.2 0.2
v -0.35 -0.1 0.2
v -0.15 -0.6 0.2
v -0.15 -0.3 0.2
v -0.05 -1 0.2
v -0.05 -0.9 0.2
v -0.05 -0.7 0.2
v -0.05 -0.3 0.2
v -0.05 -0.2 0.2
v -0.05 -0.1 0.2
v 0.05 -1 0.2
v 0.05 -0.9 0.2
v 0.05 -0.2 0.2
v 0.05 -0.1 0.2
v 0.35 -1 0.2
v 0.35 -0.9 0.2
v 0.35 -0.6 0.2
v 0.35 -0.5 0.2
v 0.35 -0.2 0.2
v 0.35 -0.1 0.2
v 0.45 -1.1 0.2
v 0.45 -1 0.2
v 0.45 -0.9 0.2
v 0.45 -0.6 0.2
v 0.45 -0.5 0.2
v 0.45 -0.2 0.2
v 0.45 -0.1 0.2
v 0.45 0 0.2
v 0.55 -1 0.2
v 0.55 -0.9 0.2
v 0.55 -0.2 0.2
v 0.55 -0.1 0.2
v 0.65 -0.9 0.2
v 0.65 -0.2 0.2
v -0.45 -0.9 0.1
v -0.45 -0.7 0.1
v -0.45 -0.5 0.1
v -0.45 -0.2 0.1
v -0.45 0.8 0.1
v -0.45 0.9 0.1
v -0.35 -1 0.1
v -0.35 -0.9 0.1
v -0.35 -0.6 0.1
v -0.35 -0.5 0.1
v -0.35 -0.2 0.1
v -0.35 -0.1 0.1
v -0.35 0.1 0.1
v -0.35 0.3 0.1
v -0.25 0 0.1
v -0.25 0.1 0.1
v -0.25 0.3 0.1
v -0.25 0.4 0.1
v -0.15 -0.6 0.1
v -0.15 -0.3 0.1
v -0.15 0.1 0.1
v -0.15 0.3 0.1
v -0.15 0.8 0.1
v -0.15 0.9 0.1
v -0.05 -1 0.1
v -0.05 -0.9 0.1
v -0.05 -0.7 0.1
v -0.05 -0.3 0.1
v -0.05 -0.2 0.1
v -0.05 -0.1 0.1
v -0.05 0.6 0.1
v -0.05 0.7 0.1
v -0.05 0.8 0.1
v -0.05 1.1 0.1
v 0.05 -1 0.1
v 0.05 -0.9 0.1
v 0.05 -0.2 0.1
v 0.05 -0.1 0.1
v 0.05 0.9 0.1
v 0.05 1 0.1
v 0.15 0.1 0.1
v 0.15 0.3 0.1
v 0.15 0.7 0.1
v 0.15 0.8 0.1
v 0.25 0 0.1
v 0.25 0.1 0.1
v 0.25 0.3 0.1
v 0.25 0.4 0.1
v 0.25 0.6 0.1
v 0.25 0.9 0.1
v 0.25 1 0.1
v 0.25 1.1 0.1
v 0.35 -1 0.1
v 0.35 -0.9 0.1
v 0.35 -0.6 0.1
v 0.35 -0.5 0.1
v 0.35 -0.2 0.1
v 0.35 -0.1 0.1
v 0.35 0.1 0.1
v 0.35 0.3 0.1
v 0.45 -0.9 0.1
v 0.45 -0.6 0.1
v 0.45 -0.5 0.1
v 0.45 -0.2 0.1
v -0.45 -0.9 -0.1
v -0.45 -0.6 -0.1
v -0.45 -0.5 -0.1
v -0.45 -0.2 -0.1
v -0.45 0.8 -0.1
v -0.45 0.9 -0.1
v -0.35 -1 -0.1
v -0.35 -0.9 -0.1
v -0.35 -0.6 -0.1
v -0.35 -0.5 -0.1
v -0.35 -0.2 -0.1
v -0.35 -0.1 -0.1
v -0.35 0.1 -0.1
v -0.35 0.3 -0.1
v -0.25 0 -0.1
v -0.25 0.1 -0.1
v -0.25 0.3 -0.1
v -0.25 0.4 -0.1
v -0.15 0.1 -0.1
v -0.15 0.3 -0.1
v -0.15 0.8 -0.1
v -0.15 0.9 -0.1
v -0.05 -1 -0.1
v -0.05 -0.9 -0.1
v -0.05 -0.2 -0.1
v -0.05 -0.1 -0.1
v -0.05 0.6 -0.1
v -0.05 0.7 -0.1
v -0.05 0.8 -0.1
v -0.05 1.1 -0.1
v 0.05 -1 -0.1
v 0.05 -0.9 -0.1
v 0.05 -0.7 -0.1
v 0.05 -0.3 -0.1
v 0.05 -0.2 -0.1
v 0.05 -0.1 -0.1
v 0.05 0.9 -0.1
v 0.05 1 -0.1
v 0.15 -0.6 -0.1
v 0.15 -0.3 -0.1
v 0.15 0.1 -0.1
v 0.15 0.3 -0.1
v 0.15 0.7 -0.1
v 0.15 0.8 -0.1
v 0.25 0 -0.1
v 0.25 0.1 -0.1
v 0.25 0.3 -0.1
v 0.25 0.4 -0.1
v 0.25 0.6 -0.1
v 0.25 0.9 -0.1
v 0.25 1 -0.1
v 0.25 1.1 -0.1
v 0.35 -1 -0.1
v 0.35 -0.9 -0.1
v 0.35 -0.6 -0.1
v 0.35 -0.5 -0.1
v 0.35 -0.2 -0.1
v 0.35 -0.1 -0.1
v 0.35 0.1 -0.1
v 0.35 0.3 -0.1
v 0.45 -0.9 -0.1
v 0.45 -0.7 -0.1
v 0.45 -0.5 -0.1
v 0.45 -0.2 -0.1
v -0.65 -0.9 -0.2
v -0.65 -0.2 -0.2
v -0.55 -1 -0.2
v -0.55 -0.9 -0.2
v -0.55 -0.2 -0.2
v -0.55 -0.1 -0.2
v -0.45 -1.1 -0.2
v -0.45 -1 -0.2
v -0.45 -0.9 -0.2
v -0.45 -0.6 -0.2
v -0.45 -0.5 -0.2
v -0.45 -0.2 -0.2
v -0.45 -0.1 -0.2
v -0.45 0 -0.2
v -0.35 -1 -0.2
v -0.35 -0.9 -0.2
v -0.35 -0.6 -0.2
v -0.35 -0.5 -0.2
v -0.35 -0.2 -0.2
v -0.35 -0.1 -0.2
v -0.05 -1 -0.2
v -0.05 -0.9 -0.2
v -0.05 -0.2 -0.2
v -0.05 -0.1 -0.2
v 0.05 -1 -0.2
v 0.05 -0.9 -0.2
v 0.05 -0.7 -0.2
v 0.05 -0.3 -0.2
v 0.05 -0.2 -0.2
v 0.05 -0.1 -0.2
v 0.15 -0.6 -0.2
v 0.15 -0.3 -0.2
v 0.35 -1 -0.2
v 0.35 -0.9 -0.2
v 0.35 -0.6 -0.2
v 0.35 -0.5 -0.2
v 0.35 -0.2 -0.2
v 0.35 -0.1 -0.2
v 0.45 -1.1 -0.2
v 0.45 -1 -0.2
v 0.45 -0.9 -0.2
v 0.45 -0.7 -0.2
v 0.45 -0.5 -0.2
v 0.45 -0.2 -0.2
v 0.45 -0.1 -0.2
v 0.45 0 -0.2
v 0.55 -1 -0.2
v 0.55 -0.9 -0.2
v 0.55 -0.2 -0.2
v 0.55 -0.1 -0.2
v 0.65 -0.9 -0.2
v 0.65 -0.2 -0.2
v -0.45 -1.1 0.2
v 0.45 -1.1 0.2
v -0.45 -1.1 -0.2
v 0.45 -1.1 -0.2
v -0.55 -1 0.2
v -0.45 -1 0.2
v 0.45 -1 0.2
v 0.55 -1 0.2
v -0.55 -1 -0.2
v -0.45 -1 -0.2
v 0.45 -1 -0.2
v 0.55 -1 -0.2
v -0.65 -0.9 0.2
v -0.55 -0.9 0.2
v 0.55 -0.9 0.2
v 0.65 -0.9 0.2
v -0.65 -0.9 -0.2
v -0.55 -0.9 -0.2
v 0.55 -0.9 -0.2
v 0.65 -0.9 -0.2
v -0.45 -0.7 0.2
v -0.05 -0.7 0.2
v -0.45 -0.7 0.1
v -0.05 -0.7 0.1
v 0.05 -0.7 -0.1
v 0.45 -0.7 -0.1
v 0.05 -0.7 -0.2
v 0.45 -0.7 -0.2
v 0.35 -0.6 0.2
v 0.45 -0.6 0.2
v 0.35 -0.6 0.1
v 0.45 -0.6 0.1
v -0.45 -0.6 -0.1
v -0.35 -0.6 -0.1
v -0.45 -0.6 -0.2
v -0.35 -0.6 -0.2
v -0.45 -0.2 0.2
v -0.35 -0.2 0.2
v -0.05 -0.2 0.2
v 0.05 -0.2 0.2
v 0.35 -0.2 0.2
v 0.45 -0.2 0.2
v -0.45 -0.2 0.1
v -0.35 -0.2 0.1
v -0.05 -0.2 0.1
v 0.05 -0.2 0.1
v 0.35 -0.2 0.1
v 0.45 -0.2 0.1
v -0.45 -0.2 -0.1
v -0.35 -0.2 -0.1
v -0.05 -0.2 -0.1
v 0.05 -0.2 -0.1
v 0.35 -0.2 -0.1
v 0.45 -0.2 -0.1
v -0.45 -0.2 -0.2
v -0.35 -0.2 -0.2
v -0.05 -0.2 -0.2
v 0.05 -0.2 -0.2
v 0.35 -0.2 -0.2
v 0.45 -0.2 -0.2
v -0.35 -0.1 0.2
v -0.05 -0.1 0.2
v 0.05 -0.1 0.2
v 0.35 -0.1 0.2
v -0.35 -0.1 0.1
v -0.05 -0.1 0.1
v 0.05 -0.1 0.1
v 0.35 -0.1 0.1
v -0.35 -0.1 -0.1
v -0.05 -0.1 -0.1
v 0.05 -0.1 -0.1
v 0.35 -0.1 -0.1
v -0.35 -0.1 -0.2
v -0.05 -0.1 -0.2
v 0.05 -0.1 -0.2
v 0.35 -0.1 -0.2
v -0.35 0.1 0.1
v -0.25 0.1 0.1
v 0.25 0.1 0.1
v 0.35 0.1 0.1
v -0.35 0.1 -0.1
v -0.25 0.1 -0.1
v 0.25 0.1 -0.1
v 0.35 0.1 -0.1
v -0.15 0.3 0.1
v 0.15 0.3 0.1
v -0.15 0.3 -0.1
v 0.15 0.3 -0.1
v -0.05 0.6 0.1
v 0.25 0.6 0.1
v -0.05 0.6 -0.1
v 0.25 0.6 -0.1
v -0.45 0.8 0.1
v -0.15 0.8 0.1
v -0.05 0.8 0.1
v 0.15 0.8 0.1
v -0.45 0.8 -0.1
v -0.15 0.8 -0.1
v -0.05 0.8 -0.1
v 0.15 0.8 -0.1
v 0.05 1 0.1
v 0.25 1 0.1
v 0.05 1 -0.1
v 0.25 1 -0.1
v -0.35 -1 0.2
v -0.05 -1 0.2
v 0.05 -1 0.2
v 0.35 -1 0.2
v -0.35 -1 0.1
v -0.05 -1 0.1
v 0.05 -1 0.1
v 0.35 -1 0.1
v -0.35 -1 -0.1
v -0.05 -1 -0.1
v 0.05 -1 -0.1
v 0.35 -1 -0.1
v -0.35 -1 -0.2
v -0.05 -1 -0.2
v 0.05 -1 -0.2
v 0.35 -1 -0.2
v -0.45 -0.9 0.2
v -0.35 -0.9 0.2
v -0.05 -0.9 0.2
v 0.05 -0.9 0.2
v 0.35 -0.9 0.2
v 0.45 -0.9 0.2
v -0.45 -0.9 0.1
v -0.35 -0.9 0.1
v -0.05 -0.9 0.1
v 0.05 -0.9 0.1
v 0.35 -0.9 0.1
v 0.45 -0.9 0.1
v -0.45 -0.9 -0.1
v -0.35 -0.9 -0.1
v -0.05 -0.9 -0.1
v 0.05 -0.9 -0.1
v 0.35 -0.9 -0.1
v 0.45 -0.9 -0.1
v -0.45 -0.9 -0.2
v -0.35 -0.9 -0.2
v -0.05 -0.9 -0.2
v 0.05 -0.9 -0.2
v 0.35 -0.9 -0.2
v 0.45 -0.9 -0.2
v -0.35 -0.6 0.2
v -0.15 -0.6 0.2
v -0.35 -0.6 0.1
v -0.15 -0.6 0.1
v 0.15 -0.6 -0.1
v 0.35 -0.6 -0.1
v 0.15 -0.6 -0.2
v 0.35 -0.6 -0.2
v -0.45 -0.5 0.2
v -0.35 -0.5 0.2
v 0.35 -0.5 0.2
v 0.45 -0.5 0.2
v -0.45 -0.5 0.1
v -0.35 -0.5 0.1
v 0.35 -0.5 0.1
v 0.45 -0.5 0.1
v -0.45 -0.5 -0.1
v -0.35 -0.5 -0.1
v 0.35 -0.5 -0.1
v 0.45 -0.5 -0.1
v -0.45 -0.5 -0.2
v -0.35 -0.5 -0.2
v 0.35 -0.5 -0.2
v 0.45 -0.5 -0.2
v -0.15 -0.3 0.2
v -0.05 -0.3 0.2
v -0.15 -0.3 0.1
v -0.05 -0.3 0.1
v 0.05 -0.3 -0.1
v 0.15 -0.3 -0.1
v 0.05 -0.3 -0.2
v 0.15 -0.3 -0.2
v -0.65 -0.2 0.2
v -0.55 -0.2 0.2
v 0.55 -0.2 0.2
v 0.65 -0.2 0.2
v -0.65 -0.2 -0.2
v -0.55 -0.2 -0.2
v 0.55 -0.2 -0.2
v 0.65 -0.2 -0.2
v -0.55 -0.1 0.2
v -0.45 -0.1 0.2
v 0.45 -0.1 0.2
v 0.55 -0.1 0.2
v -0.55 -0.1 -0.2
v -0.45 -0.1 -0.2
v 0.45 -0.1 -0.2
v 0.55 -0.1 -0.2
v -0.45 0 0.2
v 0.45 0 0.2
v -0.25 0 0.1
v 0.25 0 0.1
v -0.25 0 -0.1
v 0.25 0 -0.1
v -0.45 0 -0.2
v 0.45 0 -0.2
v -0.15 0.1 0.1
v 0.15 0.1 0.1
v -0.15 0.1 -0.1
v 0.15 0.1 -0.1
v -0.35 0.3 0.1
v -0.25 0.3 0.1
v 0.25 0.3 0.1
v 0.35 0.3 0.1
v -0.35 0.3 -0.1
v -0.25 0.3 -0.1
v 0.25 0.3 -0.1
v 0.35 0.3 -0.1
v -0.25 0.4 0.1
v 0.25 0.4 0.1
v -0.25 0.4 -0.1
v 0.25 0.4 -0.1
v -0.05 0.7 0.1
v 0.15 0.7 0.1
v -0.05 0.7 -0.1
v 0.15 0.7 -0.1
v -0.45 0.9 0.1
v -0.15 0.9 0.1
v 0.05 0.9 0.1
v 0.25 0.9 0.1
v -0.45 0.9 -0.1
v -0.15 0.9 -0.1
v 0.05 0.9 -0.1
v 0.25 0.9 -0.1
v -0.05 1.1 0.1
v 0.25 1.1 0.1
v -0.05 1.1 -0.1
v 0.25 1.1 -0.1

# faces
f 3/2/1 2/2/1 1/2/1
f 4/2/1 2/2/1 3/2/1
f 7/2/1 6/2/1 5/2/1
f 8/2/1 6/2/1 7/2/1
f 11/2/1 10/2/1 9/2/1
f 12/2/1 10/2/1 11/2/1
f 15/2/1 14/2/1 13/2/1
f 16/2/1 14/2/1 15/2/1
f 19/2/1 18/2/1 17/2/1
f 20/2/1 18/2/1 19/2/1
f 23/1/1 22/1/1 21/1/1
f 24/1/1 22/1/1 23/1/1
f 27/2/1 26/2/1 25/2/1
f 28/2/1 26/2/1 27/2/1
f 31/2/1 30/2/1 29/2/1
f 32/2/1 30/2/1 31/2/1
f 35/2/1 34/2/1 33/2/1
f 36/2/1 34/2/1 35/2/1
f 39/3/1 38/3/1 37/3/1
f 40/3/1 38/3/1 39/3/1
f 45/3/1 42/3/1 41/3/1
f 46/3/1 42/3/1 45/3/1
f 47/3/1 44/3/1 43/3/1
f 48/3/1 44/3/1 47/3/1
f 53/3/1 50/3/1 49/3/1
f 54/3/1 50/3/1 53/3/1
f 55/3/1 52/3/1 51/3/1
f 56/3/1 52/3/1 55/3/1
f 59/1/1 58/1/1 57/1/1
f 60/1/1 58/1/1 59/1/1
f 63/1/1 62/1/1 61/1/1
f 64/1/1 62/1/1 63/1/1
f 67/3/1 66/3/1 65/3/1
f 68/3/1 66/3/1 67/3/1
f 71/2/1 70/2/1 69/2/1
f 72/2/1 70/2/1 71/2/1
f 75/1/1 74/1/1 73/1/1
f 76/1/1 74/1/1 75/1/1
f 81/2/1 78/2/1 77/2/1
f 82/2/1 78/2/1 81/2/1
f 83/2/1 80/2/1 79/2/1
f 84/2/1 80/2/1 83/2/1
f 89/3/1 86/3/1 85/3/1
f 90/3/1 86/3/1 89/3/1
f 91/3/1 88/3/1 87/3/1
f 92/3/1 88/3/1 91/3/1
f 97/2/1 94/2/1 93/2/1
f 98/2/1 94/2/1 97/2/1
f 99/2/1 96/2/1 95/2/1
f 100/2/1 96/2/1 99/2/1
f 105/2/1 104/2/1 103/2/1
f 106/2/1 104/2/1 105/2/1
f 107/2/1 102/2/1 101/2/1
f 108/2/1 102/2/1 107/2/1
f 113/2/1 110/2/1 109/2/1
f 114/2/1 110/2/1 113/2/1
f 115/2/1 112/2/1 111/2/1
f 116/2/1 112/2/1 115/2/1
f 117/2/2 118/2/2 121/2/2
f 121/2/2 118/2/2 122/2/2
f 119/2/2 120/2/2 123/2/2
f 123/2/2 120/2/2 124/2/2
f 125/2/2 126/2/2 129/2/2
f 129/2/2 126/2/2 130/2/2
f 127/2/2 128/2/2 131/2/2
f 131/2/2 128/2/2 132/2/2
f 133/2/2 134/2/2 137/2/2
f 137/2/2 134/2/2 138/2/2
f 135/2/2 136/2/2 139/2/2
f 139/2/2 136/2/2 140/2/2
f 141/3/2 142/3/2 145/3/2
f 145/3/2 142/3/2 146/3/2
f 143/3/2 144/3/2 147/3/2
f 147/3/2 144/3/2 148/3/2
f 149/2/2 150/2/2 153/2/2
f 153/2/2 150/2/2 154/2/2
f 151/2/2 152/2/2 155/2/2
f 155/2/2 152/2/2 156/2/2
f 157/2/2 158/2/2 159/2/2
f 159/2/2 158/2/2 160/2/2
f 161/1/2 162/1/2 163/1/2
f 163/1/2 162/1/2 164/1/2
f 165/3/2 166/3/2 167/3/2
f 167/3/2 166/3/2 168/3/2
f 169/3/2 170/3/2 173/3/2
f 173/3/2 170/3/2 174/3/2
f 171/3/2 172/3/2 175/3/2
f 175/3/2 172/3/2 176/3/2
f 177/3/2 178/3/2 181/3/2
f 181/3/2 178/3/2 182/3/2
f 179/3/2 180/3/2 183/3/2
f 183/3/2 180/3/2 184/3/2
f 185/1/2 186/1/2 187/1/2
f 187/1/2 186/1/2 188/1/2
f 189/3/2 190/3/2 191/3/2
f 191/3/2 190/3/2 192/3/2
f 193/2/2 194/2/2 195/2/2
f 195/2/2 194/2/2 196/2/2
f 197/2/2 198/2/2 199/2/2
f 199/2/2 198/2/2 200/2/2
f 201/1/2 202/1/2 203/1/2
f 203/1/2 202/1/2 204/1/2
f 205/1/2 206/1/2 207/1/2
f 207/1/2 206/1/2 208/1/2
f 209/2/2 210/2/2 211/2/2
f 211/2/2 210/2/2 212/2/2
f 213/2/2 214/2/2 215/2/2
f 215/2/2 214/2/2 216/2/2
f 217/2/2 218/2/2 219/2/2
f 219/2/2 218/2/2 220/2/2
f 221/2/2 222/2/2 223/2/2
f 223/2/2 222/2/2 224/2/2
f 225/2/2 226/2/2 227/2/2
f 227/2/2 226/2/2 228/2/2
f 229/2/2 230/2/2 231/2/2
f 231/2/2 230/2/2 232/2/2
f 236/2/3 234/2/3 233/2/3
f 237/2/3 234/2/3 236/2/3
f 240/2/3 236/2/3 235/2/3
f 240/2/3 238/2/3 237/2/3
f 240/2/3 237/2/3 236/2/3
f 241/2/3 238/2/3 240/2/3
f 242/2/3 238/2/3 241/2/3
f 243/2/3 238/2/3 242/2/3
f 244/2/3 238/2/3 243/2/3
f 245/2/3 238/2/3 244/2/3
f 247/2/3 240/2/3 239/2/3
f 247/2/3 241/2/3 240/2/3
f 248/2/3 241/2/3 247/2/3
f 249/3/3 243/3/3 242/3/3
f 250/3/3 243/3/3 249/3/3
f 251/2/3 246/2/3 245/2/3
f 251/2/3 245/2/3 244/2/3
f 252/2/3 246/2/3 251/2/3
f 253/3/3 249/3/3 242/3/3
f 255/2/3 247/2/3 239/2/3
f 257/3/3 254/3/3 253/3/3
f 257/3/3 253/3/3 242/3/3
f 258/3/3 254/3/3 257/3/3
f 260/2/3 246/2/3 252/2/3
f 261/3/3 256/3/3 255/3/3
f 261/2/3 255/2/3 239/2/3
f 262/3/3 256/3/3 261/3/3
f 263/3/3 260/3/3 259/3/3
f 264/2/3 246/2/3 260/2/3
f 264/3/3 260/3/3 263/3/3
f 265/2/3 261/2/3 239/2/3
f 270/2/3 246/2/3 264/2/3
f 271/2/3 265/2/3 239/2/3
f 271/2/3 266/2/3 265/2/3
f 272/2/3 266/2/3 271/2/3
f 273/2/3 266/2/3 272/2/3
f 274/3/3 268/3/3 267/3/3
f 275/3/3 268/3/3 274/3/3
f 276/2/3 270/2/3 269/2/3
f 277/2/3 246/2/3 270/2/3
f 277/2/3 270/2/3 276/2/3
f 278/2/3 246/2/3 277/2/3
f 279/2/3 273/2/3 272/2/3
f 279/2/3 275/2/3 274/2/3
f 279/2/3 277/2/3 276/2/3
f 279/2/3 276/2/3 275/2/3
f 279/2/3 274/2/3 273/2/3
f 280/2/3 277/2/3 279/2/3
f 281/2/3 277/2/3 280/2/3
f 282/2/3 277/2/3 281/2/3
f 283/2/3 281/2/3 280/2/3
f 284/2/3 281/2/3 283/2/3
f 292/4/3 286/4/3 285/4/3
f 294/4/3 288/4/3 287/4/3
f 295/4/3 288/4/3 294/4/3
f 300/2/3 298/2/3 297/2/3
f 301/2/3 298/2/3 300/2/3
f 303/4/3 294/4/3 293/4/3
f 303/4/3 295/4/3 294/4/3
f 303/4/3 296/4/3 295/4/3
f 304/4/3 296/4/3 303/4/3
f 305/2/3 302/2/3 301/2/3
f 305/2/3 301/2/3 300/2/3
f 305/2/3 300/2/3 299/2/3
f 306/2/3 302/2/3 305/2/3
f 307/1/3 290/1/3 289/1/3
f 308/1/3 290/1/3 307/1/3
f 309/4/3 292/4/3 291/4/3
f 310/4/3 286/4/3 292/4/3
f 310/4/3 292/4/3 309/4/3
f 311/4/3 286/4/3 310/4/3
f 312/4/3 296/4/3 304/4/3
f 313/4/3 296/4/3 312/4/3
f 314/4/3 296/4/3 313/4/3
f 320/4/3 311/4/3 310/4/3
f 320/4/3 313/4/3 312/4/3
f 320/4/3 312/4/3 311/4/3
f 321/4/3 313/4/3 320/4/3
f 323/1/3 318/1/3 317/1/3
f 324/1/3 318/1/3 323/1/3
f 325/2/3 305/2/3 299/2/3
f 326/2/3 302/2/3 306/2/3
f 327/1/3 316/1/3 315/1/3
f 328/1/3 323/1/3 317/1/3
f 329/2/3 325/2/3 299/2/3
f 329/2/3 326/2/3 325/2/3
f 330/2/3 326/2/3 329/2/3
f 331/2/3 302/2/3 326/2/3
f 331/2/3 326/2/3 330/2/3
f 332/2/3 302/2/3 331/2/3
f 333/1/3 328/1/3 327/1/3
f 333/1/3 327/1/3 315/1/3
f 334/1/3 323/1/3 328/1/3
f 334/1/3 328/1/3 333/1/3
f 335/1/3 318/1/3 324/1/3
f 336/1/3 318/1/3 335/1/3
f 337/4/3 322/4/3 321/4/3
f 337/4/3 320/4/3 319/4/3
f 337/4/3 321/4/3 320/4/3
f 338/4/3 322/4/3 337/4/3
f 339/4/3 322/4/3 338/4/3
f 340/4/3 322/4/3 339/4/3
f 341/4/3 322/4/3 340/4/3
f 342/4/3 322/4/3 341/4/3
f 343/2/3 331/2/3 330/2/3
f 344/2/3 331/2/3 343/2/3
f 345/4/3 339/4/3 338/4/3
f 346/4/3 339/4/3 345/4/3
f 347/4/3 341/4/3 340/4/3
f 348/4/3 341/4/3 347/4/3
f 349/4/4 350/4/4 356/4/4
f 356/4/4 350/4/4 357/4/4
f 351/4/4 352/4/4 358/4/4
f 358/4/4 352/4/4 359/4/4
f 361/2/4 362/2/4 364/2/4
f 364/2/4 362/2/4 365/2/4
f 363/2/4 364/2/4 367/2/4
f 365/2/4 366/2/4 367/2/4
f 364/2/4 365/2/4 367/2/4
f 367/2/4 366/2/4 368/2/4
f 353/1/4 354/1/4 369/1/4
f 369/1/4 354/1/4 370/1/4
f 356/4/4 357/4/4 371/4/4
f 355/4/4 356/4/4 371/4/4
f 357/4/4 358/4/4 371/4/4
f 358/4/4 359/4/4 371/4/4
f 359/4/4 360/4/4 371/4/4
f 371/4/4 360/4/4 372/4/4
f 372/4/4 360/4/4 373/4/4
f 373/4/4 360/4/4 374/4/4
f 372/4/4 373/4/4 380/4/4
f 380/4/4 373/4/4 381/4/4
f 381/4/4 373/4/4 382/4/4
f 382/4/4 373/4/4 383/4/4
f 377/1/4 378/1/4 385/1/4
f 385/1/4 378/1/4 386/1/4
f 383/4/4 384/4/4 388/4/4
f 382/4/4 383/4/4 388/4/4
f 363/2/4 367/2/4 389/2/4
f 368/2/4 366/2/4 390/2/4
f 375/1/4 376/1/4 391/1/4
f 377/1/4 385/1/4 392/1/4
f 363/2/4 389/2/4 393/2/4
f 389/2/4 390/2/4 393/2/4
f 393/2/4 390/2/4 394/2/4
f 390/2/4 366/2/4 395/2/4
f 394/2/4 390/2/4 395/2/4
f 395/2/4 366/2/4 396/2/4
f 391/1/4 392/1/4 397/1/4
f 375/1/4 391/1/4 397/1/4
f 392/1/4 385/1/4 398/1/4
f 397/1/4 392/1/4 398/1/4
f 386/1/4 378/1/4 399/1/4
f 399/1/4 378/1/4 400/1/4
f 379/4/4 380/4/4 401/4/4
f 380/4/4 381/4/4 401/4/4
f 401/4/4 381/4/4 402/4/4
f 387/4/4 388/4/4 403/4/4
f 403/4/4 388/4/4 404/4/4
f 388/4/4 384/4/4 405/4/4
f 404/4/4 388/4/4 405/4/4
f 405/4/4 384/4/4 406/4/4
f 394/2/4 395/2/4 407/2/4
f 407/2/4 395/2/4 408/2/4
f 402/4/4 381/4/4 409/4/4
f 409/4/4 381/4/4 410/4/4
f 404/4/4 405/4/4 411/4/4
f 411/4/4 405/4/4 412/4/4
f 413/2/4 414/2/4 416/2/4
f 416/2/4 414/2/4 417/2/4
f 415/2/4 416/2/4 420/2/4
f 417/2/4 418/2/4 420/2/4
f 416/2/4 417/2/4 420/2/4
f 420/2/4 418/2/4 421/2/4
f 421/2/4 418/2/4 422/2/4
f 422/2/4 418/2/4 423/2/4
f 423/2/4 418/2/4 424/2/4
f 424/2/4 418/2/4 425/2/4
f 419/2/4 420/2/4 427/2/4
f 420/2/4 421/2/4 427/2/4
f 427/2/4 421/2/4 428/2/4
f 422/3/4 423/3/4 429/3/4
f 429/3/4 423/3/4 430/3/4
f 425/2/4 426/2/4 431/2/4
f 424/2/4 425/2/4 431/2/4
f 431/2/4 426/2/4 432/2/4
f 419/2/4 427/2/4 433/2/4
f 432/2/4 426/2/4 436/2/4
f 433/3/4 434/3/4 437/3/4
f 419/2/4 433/2/4 437/2/4
f 437/3/4 434/3/4 438/3/4
f 435/3/4 436/3/4 441/3/4
f 436/2/4 426/2/4 442/2/4
f 441/3/4 436/3/4 442/3/4
f 439/3/4 440/3/4 443/3/4
f 443/3/4 440/3/4 444/3/4
f 419/2/4 437/2/4 445/2/4
f 439/3/4 443/3/4 447/3/4
f 442/2/4 426/2/4 450/2/4
f 445/2/4 446/2/4 451/2/4
f 419/2/4 445/2/4 451/2/4
f 451/2/4 446/2/4 452/2/4
f 452/2/4 446/2/4 453/2/4
f 439/3/4 447/3/4 454/3/4
f 447/3/4 448/3/4 454/3/4
f 454/3/4 448/3/4 455/3/4
f 449/2/4 450/2/4 456/2/4
f 450/2/4 426/2/4 457/2/4
f 456/2/4 450/2/4 457/2/4
f 457/2/4 426/2/4 458/2/4
f 452/2/4 453/2/4 459/2/4
f 456/2/4 457/2/4 459/2/4
f 454/2/4 455/2/4 459/2/4
f 453/2/4 454/2/4 459/2/4
f 455/2/4 456/2/4 459/2/4
f 459/2/4 457/2/4 460/2/4
f 460/2/4 457/2/4 461/2/4
f 461/2/4 457/2/4 462/2/4
f 460/2/4 461/2/4 463/2/4
f 463/2/4 461/2/4 464/2/4
f 467/2/5 466/2/5 465/2/5
f 468/2/5 466/2/5 467/2/5
f 473/2/5 470/2/5 469/2/5
f 474/2/5 470/2/5 473/2/5
f 475/2/5 472/2/5 471/2/5
f 476/2/5 472/2/5 475/2/5
f 481/2/5 478/2/5 477/2/5
f 482/2/5 478/2/5 481/2/5
f 483/2/5 480/2/5 479/2/5
f 484/2/5 480/2/5 483/2/5
f 487/3/5 486/3/5 485/3/5
f 488/3/5 486/3/5 487/3/5
f 491/3/5 490/3/5 489/3/5
f 492/3/5 490/3/5 491/3/5
f 495/3/5 494/3/5 493/3/5
f 496/3/5 494/3/5 495/3/5
f 499/3/5 498/3/5 497/3/5
f 500/3/5 498/3/5 499/3/5
f 507/2/5 502/2/5 501/2/5
f 508/2/5 502/2/5 507/2/5
f 509/3/5 504/3/5 503/3/5
f 510/3/5 504/3/5 509/3/5
f 511/2/5 506/2/5 505/2/5
f 512/2/5 506/2/5 511/2/5
f 519/2/5 514/2/5 513/2/5
f 520/2/5 514/2/5 519/2/5
f 521/3/5 516/3/5 515/3/5
f 522/3/5 516/3/5 521/3/5
f 523/2/5 518/2/5 517/2/5
f 524/2/5 518/2/5 523/2/5
f 529/2/5 526/2/5 525/2/5
f 530/2/5 526/2/5 529/2/5
f 531/2/5 528/2/5 527/2/5
f 532/2/5 528/2/5 531/2/5
f 537/2/5 534/2/5 533/2/5
f 538/2/5 534/2/5 537/2/5
f 539/2/5 536/2/5 535/2/5
f 540/2/5 536/2/5 539/2/5
f 545/2/5 542/2/5 541/2/5
f 546/2/5 542/2/5 545/2/5
f 547/2/5 544/2/5 543/2/5
f 548/2/5 544/2/5 547/2/5
f 551/2/5 550/2/5 549/2/5
f 552/2/5 550/2/5 551/2/5
f 555/1/5 554/1/5 553/1/5
f 556/1/5 554/1/5 555/1/5
f 561/1/5 558/1/5 557/1/5
f 562/1/5 558/1/5 561/1/5
f 563/1/5 560/1/5 559/1/5
f 564/1/5 560/1/5 563/1/5
f 567/1/5 566/1/5 565/1/5
f 568/1/5 566/1/5 567/1/5
f 569/2/6 570/2/6 573/2/6
f 573/2/6 570/2/6 574/2/6
f 571/2/6 572/2/6 575/2/6
f 575/2/6 572/2/6 576/2/6
f 577/2/6 578/2/6 581/2/6
f 581/2/6 578/2/6 582/2/6
f 579/2/6 580/2/6 583/2/6
f 583/2/6 580/2/6 584/2/6
f 585/2/6 586/2/6 591/2/6
f 591/2/6 586/2/6 592/2/6
f 587/3/6 588/3/6 593/3/6
f 593/3/6 588/3/6 594/3/6
f 589/2/6 590/2/6 595/2/6
f 595/2/6 590/2/6 596/2/6
f 597/2/6 598/2/6 603/2/6
f 603/2/6 598/2/6 604/2/6
f 599/3/6 600/3/6 605/3/6
f 605/3/6 600/3/6 606/3/6
f 601/2/6 602/2/6 607/2/6
f 607/2/6 602/2/6 608/2/6
f 609/3/6 610/3/6 611/3/6
f 611/3/6 610/3/6 612/3/6
f 613/3/6 614/3/6 615/3/6
f 615/3/6 614/3/6 616/3/6
f 617/3/6 618/3/6 621/3/6
f 621/3/6 618/3/6 622/3/6
f 619/3/6 620/3/6 623/3/6
f 623/3/6 620/3/6 624/3/6
f 625/3/6 626/3/6 629/3/6
f 629/3/6 626/3/6 630/3/6
f 627/3/6 628/3/6 631/3/6
f 631/3/6 628/3/6 632/3/6
f 633/3/6 634/3/6 635/3/6
f 635/3/6 634/3/6 636/3/6
f 637/3/6 638/3/6 639/3/6
f 639/3/6 638/3/6 640/3/6
f 641/2/6 642/2/6 645/2/6
f 645/2/6 642/2/6 646/2/6
f 643/2/6 644/2/6 647/2/6
f 647/2/6 644/2/6 648/2/6
f 649/2/6 650/2/6 653/2/6
f 653/2/6 650/2/6 654/2/6
f 651/2/6 652/2/6 655/2/6
f 655/2/6 652/2/6 656/2/6
f 657/2/6 658/2/6 659/2/6
f 659/2/6 658/2/6 660/2/6
f 657/2/6 659/2/6 661/2/6
f 660/2/6 658/2/6 662/2/6
f 657/2/6 661/2/6 663/2/6
f 661/2/6 662/2/6 663/2/6
f 662/2/6 658/2/6 664/2/6
f 663/2/6 662/2/6 664/2/6
f 665/2/6 666/2/6 667/2/6
f 667/2/6 666/2/6 668/2/6
f 669/2/6 670/2/6 673/2/6
f 673/2/6 670/2/6 674/2/6
f 671/2/6 672/2/6 675/2/6
f 675/2/6 672/2/6 676/2/6
f 677/2/6 678/2/6 679/2/6
f 679/2/6 678/2/6 680/2/6
f 681/1/6 682/1/6 683/1/6
f 683/1/6 682/1/6 684/1/6
f 685/1/6 686/1/6 689/1/6
f 689/1/6 686/1/6 690/1/6
f 687/1/6 688/1/6 691/1/6
f 691/1/6 688/1/6 692/1/6
f 693/1/6 694/1/6 695/1/6
f 695/1/6 694/1/6 696/1/6
