# MagicaVoxel @ Ephtracy

# group
o 

# material
mtllib Stopwatch -.mtl
usemtl palette

# normals
vn -1 0 0
vn 1 0 0
vn 0 0 1
vn 0 0 -1
vn 0 -1 0
vn 0 1 0

# texcoords
vt 0.0996094 0.5
vt 0.373047 0.5
vt 0.744141 0.5
vt 0.748047 0.5

# verts
v -0.65 -0.9 0.2
v -0.65 -0.9 -0.2
v -0.65 -0.2 0.2
v -0.65 -0.2 -0.2
v -0.55 -1 0.2
v -0.55 -1 -0.2
v -0.55 -0.9 0.2
v -0.55 -0.9 -0.2
v -0.55 -0.2 0.2
v -0.55 -0.2 -0.2
v -0.55 -0.1 0.2
v -0.55 -0.1 -0.2
v -0.45 -1.1 0.2
v -0.45 -1.1 -0.2
v -0.45 -1 0.2
v -0.45 -1 -0.2
v -0.45 -0.1 0.2
v -0.45 -0.1 -0.2
v -0.45 0 0.2
v -0.45 0 -0.2
v -0.45 0.8 0.1
v -0.45 0.8 -0.1
v -0.45 0.9 0.1
v -0.45 0.9 -0.1
v -0.35 0.1 0.1
v -0.35 0.1 -0.1
v -0.35 0.3 0.1
v -0.35 0.3 -0.1
v -0.25 -0.7 -0.1
v -0.25 -0.7 -0.2
v -0.25 -0.6 -0.1
v -0.25 -0.6 -0.2
v -0.25 0 0.1
v -0.25 0 -0.1
v -0.25 0.1 0.1
v -0.25 0.1 -0.1
v -0.25 0.3 0.1
v -0.25 0.3 -0.1
v -0.25 0.4 0.1
v -0.25 0.4 -0.1
v -0.15 -0.7 0.2
v -0.15 -0.7 0.1
v -0.15 -0.3 0.2
v -0.15 -0.3 0.1
v -0.05 -1 0.2
v -0.05 -1 0.1
v -0.05 -1 -0.1
v -0.05 -1 -0.2
v -0.05 -0.9 0.2
v -0.05 -0.9 0.1
v -0.05 -0.9 -0.1
v -0.05 -0.9 -0.2
v -0.05 -0.2 0.2
v -0.05 -0.2 0.1
v -0.05 -0.2 -0.1
v -0.05 -0.2 -0.2
v -0.05 -0.1 0.2
v -0.05 -0.1 0.1
v -0.05 -0.1 -0.1
v -0.05 -0.1 -0.2
v -0.05 0.6 0.1
v -0.05 0.6 -0.1
v -0.05 0.7 0.1
v -0.05 0.7 -0.1
v -0.05 0.8 0.1
v -0.05 0.8 -0.1
v -0.05 1.1 0.1
v -0.05 1.1 -0.1
v 0.05 -0.6 -0.1
v 0.05 -0.6 -0.2
v 0.05 -0.3 -0.1
v 0.05 -0.3 -0.2
v 0.15 0.1 0.1
v 0.15 0.1 -0.1
v 0.15 0.3 0.1
v 0.15 0.3 -0.1
v 0.15 0.7 0.1
v 0.15 0.7 -0.1
v 0.15 0.8 0.1
v 0.15 0.8 -0.1
v 0.35 -1 0.2
v 0.35 -1 0.1
v 0.35 -1 -0.1
v 0.35 -1 -0.2
v 0.35 -0.9 0.2
v 0.35 -0.9 0.1
v 0.35 -0.9 -0.1
v 0.35 -0.9 -0.2
v 0.35 -0.6 0.2
v 0.35 -0.6 0.1
v 0.35 -0.6 -0.1
v 0.35 -0.6 -0.2
v 0.35 -0.5 0.2
v 0.35 -0.5 0.1
v 0.35 -0.5 -0.1
v 0.35 -0.5 -0.2
v 0.35 -0.2 0.2
v 0.35 -0.2 0.1
v 0.35 -0.2 -0.1
v 0.35 -0.2 -0.2
v 0.35 -0.1 0.2
v 0.35 -0.1 0.1
v 0.35 -0.1 -0.1
v 0.35 -0.1 -0.2
v 0.45 -0.9 0.2
v 0.45 -0.9 0.1
v 0.45 -0.9 -0.1
v 0.45 -0.9 -0.2
v 0.45 -0.6 0.2
v 0.45 -0.6 0.1
v 0.45 -0.6 -0.1
v 0.45 -0.6 -0.2
v 0.45 -0.5 0.2
v 0.45 -0.5 0.1
v 0.45 -0.5 -0.1
v 0.45 -0.5 -0.2
v 0.45 -0.2 0.2
v 0.45 -0.2 0.1
v 0.45 -0.2 -0.1
v 0.45 -0.2 -0.2
v -0.45 -0.9 0.2
v -0.45 -0.9 0.1
v -0.45 -0.9 -0.1
v -0.45 -0.9 -0.2
v -0.45 -0.6 0.2
v -0.45 -0.6 0.1
v -0.45 -0.6 -0.1
v -0.45 -0.6 -0.2
v -0.45 -0.5 0.2
v -0.45 -0.5 0.1
v -0.45 -0.5 -0.1
v -0.45 -0.5 -0.2
v -0.45 -0.2 0.2
v -0.45 -0.2 0.1
v -0.45 -0.2 -0.1
v -0.45 -0.2 -0.2
v -0.35 -1 0.2
v -0.35 -1 0.1
v -0.35 -1 -0.1
v -0.35 -1 -0.2
v -0.35 -0.9 0.2
v -0.35 -0.9 0.1
v -0.35 -0.9 -0.1
v -0.35 -0.9 -0.2
v -0.35 -0.6 0.2
v -0.35 -0.6 0.1
v -0.35 -0.6 -0.1
v -0.35 -0.6 -0.2
v -0.35 -0.5 0.2
v -0.35 -0.5 0.1
v -0.35 -0.5 -0.1
v -0.35 -0.5 -0.2
v -0.35 -0.2 0.2
v -0.35 -0.2 0.1
v -0.35 -0.2 -0.1
v -0.35 -0.2 -0.2
v -0.35 -0.1 0.2
v -0.35 -0.1 0.1
v -0.35 -0.1 -0.1
v -0.35 -0.1 -0.2
v -0.15 0.1 0.1
v -0.15 0.1 -0.1
v -0.15 0.3 0.1
v -0.15 0.3 -0.1
v -0.15 0.8 0.1
v -0.15 0.8 -0.1
v -0.15 0.9 0.1
v -0.15 0.9 -0.1
v -0.05 -0.6 0.2
v -0.05 -0.6 0.1
v -0.05 -0.3 0.2
v -0.05 -0.3 0.1
v 0.05 -1 0.2
v 0.05 -1 0.1
v 0.05 -1 -0.1
v 0.05 -1 -0.2
v 0.05 -0.9 0.2
v 0.05 -0.9 0.1
v 0.05 -0.9 -0.1
v 0.05 -0.9 -0.2
v 0.05 -0.2 0.2
v 0.05 -0.2 0.1
v 0.05 -0.2 -0.1
v 0.05 -0.2 -0.2
v 0.05 -0.1 0.2
v 0.05 -0.1 0.1
v 0.05 -0.1 -0.1
v 0.05 -0.1 -0.2
v 0.05 0.9 0.1
v 0.05 0.9 -0.1
v 0.05 1 0.1
v 0.05 1 -0.1
v 0.15 -0.7 -0.1
v 0.15 -0.7 -0.2
v 0.15 -0.3 -0.1
v 0.15 -0.3 -0.2
v 0.25 -0.7 0.2
v 0.25 -0.7 0.1
v 0.25 -0.6 0.2
v 0.25 -0.6 0.1
v 0.25 0 0.1
v 0.25 0 -0.1
v 0.25 0.1 0.1
v 0.25 0.1 -0.1
v 0.25 0.3 0.1
v 0.25 0.3 -0.1
v 0.25 0.4 0.1
v 0.25 0.4 -0.1
v 0.25 0.6 0.1
v 0.25 0.6 -0.1
v 0.25 0.9 0.1
v 0.25 0.9 -0.1
v 0.25 1 0.1
v 0.25 1 -0.1
v 0.25 1.1 0.1
v 0.25 1.1 -0.1
v 0.35 0.1 0.1
v 0.35 0.1 -0.1
v 0.35 0.3 0.1
v 0.35 0.3 -0.1
v 0.45 -1.1 0.2
v 0.45 -1.1 -0.2
v 0.45 -1 0.2
v 0.45 -1 -0.2
v 0.45 -0.1 0.2
v 0.45 -0.1 -0.2
v 0.45 0 0.2
v 0.45 0 -0.2
v 0.55 -1 0.2
v 0.55 -1 -0.2
v 0.55 -0.9 0.2
v 0.55 -0.9 -0.2
v 0.55 -0.2 0.2
v 0.55 -0.2 -0.2
v 0.55 -0.1 0.2
v 0.55 -0.1 -0.2
v 0.65 -0.9 0.2
v 0.65 -0.9 -0.2
v 0.65 -0.2 0.2
v 0.65 -0.2 -0.2
v -0.65 -0.9 0.2
v -0.65 -0.2 0.2
v -0.55 -1 0.2
v -0.55 -0.9 0.2
v -0.55 -0.2 0.2
v -0.55 -0.1 0.2
v -0.45 -1.1 0.2
v -0.45 -1 0.2
v -0.45 -0.9 0.2
v -0.45 -0.6 0.2
v -0.45 -0.5 0.2
v -0.45 -0.2 0.2
v -0.45 -0.1 0.2
v -0.45 0 0.2
v -0.35 -1 0.2
v -0.35 -0.9 0.2
v -0.35 -0.6 0.2
v -0.35 -0.5 0.2
v -0.35 -0.2 0.2
v -0.35 -0.1 0.2
v -0.15 -0.7 0.2
v -0.15 -0.3 0.2
v -0.05 -1 0.2
v -0.05 -0.9 0.2
v -0.05 -0.6 0.2
v -0.05 -0.3 0.2
v -0.05 -0.2 0.2
v -0.05 -0.1 0.2
v 0.05 -1 0.2
v 0.05 -0.9 0.2
v 0.05 -0.2 0.2
v 0.05 -0.1 0.2
v 0.25 -0.7 0.2
v 0.25 -0.6 0.2
v 0.35 -1 0.2
v 0.35 -0.9 0.2
v 0.35 -0.6 0.2
v 0.35 -0.5 0.2
v 0.35 -0.2 0.2
v 0.35 -0.1 0.2
v 0.45 -1.1 0.2
v 0.45 -1 0.2
v 0.45 -0.9 0.2
v 0.45 -0.6 0.2
v 0.45 -0.5 0.2
v 0.45 -0.2 0.2
v 0.45 -0.1 0.2
v 0.45 0 0.2
v 0.55 -1 0.2
v 0.55 -0.9 0.2
v 0.55 -0.2 0.2
v 0.55 -0.1 0.2
v 0.65 -0.9 0.2
v 0.65 -0.2 0.2
v -0.45 -0.9 0.1
v -0.45 -0.6 0.1
v -0.45 -0.5 0.1
v -0.45 -0.2 0.1
v -0.45 0.8 0.1
v -0.45 0.9 0.1
v -0.35 -1 0.1
v -0.35 -0.9 0.1
v -0.35 -0.6 0.1
v -0.35 -0.5 0.1
v -0.35 -0.2 0.1
v -0.35 -0.1 0.1
v -0.35 0.1 0.1
v -0.35 0.3 0.1
v -0.25 0 0.1
v -0.25 0.1 0.1
v -0.25 0.3 0.1
v -0.25 0.4 0.1
v -0.15 -0.7 0.1
v -0.15 -0.3 0.1
v -0.15 0.1 0.1
v -0.15 0.3 0.1
v -0.15 0.8 0.1
v -0.15 0.9 0.1
v -0.05 -1 0.1
v -0.05 -0.9 0.1
v -0.05 -0.6 0.1
v -0.05 -0.3 0.1
v -0.05 -0.2 0.1
v -0.05 -0.1 0.1
v -0.05 0.6 0.1
v -0.05 0.7 0.1
v -0.05 0.8 0.1
v -0.05 1.1 0.1
v 0.05 -1 0.1
v 0.05 -0.9 0.1
v 0.05 -0.2 0.1
v 0.05 -0.1 0.1
v 0.05 0.9 0.1
v 0.05 1 0.1
v 0.15 0.1 0.1
v 0.15 0.3 0.1
v 0.15 0.7 0.1
v 0.15 0.8 0.1
v 0.25 -0.7 0.1
v 0.25 -0.6 0.1
v 0.25 0 0.1
v 0.25 0.1 0.1
v 0.25 0.3 0.1
v 0.25 0.4 0.1
v 0.25 0.6 0.1
v 0.25 0.9 0.1
v 0.25 1 0.1
v 0.25 1.1 0.1
v 0.35 -1 0.1
v 0.35 -0.9 0.1
v 0.35 -0.6 0.1
v 0.35 -0.5 0.1
v 0.35 -0.2 0.1
v 0.35 -0.1 0.1
v 0.35 0.1 0.1
v 0.35 0.3 0.1
v 0.45 -0.9 0.1
v 0.45 -0.6 0.1
v 0.45 -0.5 0.1
v 0.45 -0.2 0.1
v -0.45 -0.9 -0.1
v -0.45 -0.6 -0.1
v -0.45 -0.5 -0.1
v -0.45 -0.2 -0.1
v -0.45 0.8 -0.1
v -0.45 0.9 -0.1
v -0.35 -1 -0.1
v -0.35 -0.9 -0.1
v -0.35 -0.6 -0.1
v -0.35 -0.5 -0.1
v -0.35 -0.2 -0.1
v -0.35 -0.1 -0.1
v -0.35 0.1 -0.1
v -0.35 0.3 -0.1
v -0.25 -0.7 -0.1
v -0.25 -0.6 -0.1
v -0.25 0 -0.1
v -0.25 0.1 -0.1
v -0.25 0.3 -0.1
v -0.25 0.4 -0.1
v -0.15 0.1 -0.1
v -0.15 0.3 -0.1
v -0.15 0.8 -0.1
v -0.15 0.9 -0.1
v -0.05 -1 -0.1
v -0.05 -0.9 -0.1
v -0.05 -0.2 -0.1
v -0.05 -0.1 -0.1
v -0.05 0.6 -0.1
v -0.05 0.7 -0.1
v -0.05 0.8 -0.1
v -0.05 1.1 -0.1
v 0.05 -1 -0.1
v 0.05 -0.9 -0.1
v 0.05 -0.6 -0.1
v 0.05 -0.3 -0.1
v 0.05 -0.2 -0.1
v 0.05 -0.1 -0.1
v 0.05 0.9 -0.1
v 0.05 1 -0.1
v 0.15 -0.7 -0.1
v 0.15 -0.3 -0.1
v 0.15 0.1 -0.1
v 0.15 0.3 -0.1
v 0.15 0.7 -0.1
v 0.15 0.8 -0.1
v 0.25 0 -0.1
v 0.25 0.1 -0.1
v 0.25 0.3 -0.1
v 0.25 0.4 -0.1
v 0.25 0.6 -0.1
v 0.25 0.9 -0.1
v 0.25 1 -0.1
v 0.25 1.1 -0.1
v 0.35 -1 -0.1
v 0.35 -0.9 -0.1
v 0.35 -0.6 -0.1
v 0.35 -0.5 -0.1
v 0.35 -0.2 -0.1
v 0.35 -0.1 -0.1
v 0.35 0.1 -0.1
v 0.35 0.3 -0.1
v 0.45 -0.9 -0.1
v 0.45 -0.6 -0.1
v 0.45 -0.5 -0.1
v 0.45 -0.2 -0.1
v -0.65 -0.9 -0.2
v -0.65 -0.2 -0.2
v -0.55 -1 -0.2
v -0.55 -0.9 -0.2
v -0.55 -0.2 -0.2
v -0.55 -0.1 -0.2
v -0.45 -1.1 -0.2
v -0.45 -1 -0.2
v -0.45 -0.9 -0.2
v -0.45 -0.6 -0.2
v -0.45 -0.5 -0.2
v -0.45 -0.2 -0.2
v -0.45 -0.1 -0.2
v -0.45 0 -0.2
v -0.35 -1 -0.2
v -0.35 -0.9 -0.2
v -0.35 -0.6 -0.2
v -0.35 -0.5 -0.2
v -0.35 -0.2 -0.2
v -0.35 -0.1 -0.2
v -0.25 -0.7 -0.2
v -0.25 -0.6 -0.2
v -0.05 -1 -0.2
v -0.05 -0.9 -0.2
v -0.05 -0.2 -0.2
v -0.05 -0.1 -0.2
v 0.05 -1 -0.2
v 0.05 -0.9 -0.2
v 0.05 -0.6 -0.2
v 0.05 -0.3 -0.2
v 0.05 -0.2 -0.2
v 0.05 -0.1 -0.2
v 0.15 -0.7 -0.2
v 0.15 -0.3 -0.2
v 0.35 -1 -0.2
v 0.35 -0.9 -0.2
v 0.35 -0.6 -0.2
v 0.35 -0.5 -0.2
v 0.35 -0.2 -0.2
v 0.35 -0.1 -0.2
v 0.45 -1.1 -0.2
v 0.45 -1 -0.2
v 0.45 -0.9 -0.2
v 0.45 -0.6 -0.2
v 0.45 -0.5 -0.2
v 0.45 -0.2 -0.2
v 0.45 -0.1 -0.2
v 0.45 0 -0.2
v 0.55 -1 -0.2
v 0.55 -0.9 -0.2
v 0.55 -0.2 -0.2
v 0.55 -0.1 -0.2
v 0.65 -0.9 -0.2
v 0.65 -0.2 -0.2
v -0.45 -1.1 0.2
v 0.45 -1.1 0.2
v -0.45 -1.1 -0.2
v 0.45 -1.1 -0.2
v -0.55 -1 0.2
v -0.45 -1 0.2
v 0.45 -1 0.2
v 0.55 -1 0.2
v -0.55 -1 -0.2
v -0.45 -1 -0.2
v 0.45 -1 -0.2
v 0.55 -1 -0.2
v -0.65 -0.9 0.2
v -0.55 -0.9 0.2
v 0.55 -0.9 0.2
v 0.65 -0.9 0.2
v -0.65 -0.9 -0.2
v -0.55 -0.9 -0.2
v 0.55 -0.9 -0.2
v 0.65 -0.9 -0.2
v -0.15 -0.7 0.2
v 0.25 -0.7 0.2
v -0.15 -0.7 0.1
v 0.25 -0.7 0.1
v -0.25 -0.7 -0.1
v 0.15 -0.7 -0.1
v -0.25 -0.7 -0.2
v 0.15 -0.7 -0.2
v -0.45 -0.6 0.2
v -0.35 -0.6 0.2
v 0.35 -0.6 0.2
v 0.45 -0.6 0.2
v -0.45 -0.6 0.1
v -0.35 -0.6 0.1
v 0.35 -0.6 0.1
v 0.45 -0.6 0.1
v -0.45 -0.6 -0.1
v -0.35 -0.6 -0.1
v 0.35 -0.6 -0.1
v 0.45 -0.6 -0.1
v -0.45 -0.6 -0.2
v -0.35 -0.6 -0.2
v 0.35 -0.6 -0.2
v 0.45 -0.6 -0.2
v -0.45 -0.2 0.2
v -0.35 -0.2 0.2
v -0.05 -0.2 0.2
v 0.05 -0.2 0.2
v 0.35 -0.2 0.2
v 0.45 -0.2 0.2
v -0.45 -0.2 0.1
v -0.35 -0.2 0.1
v -0.05 -0.2 0.1
v 0.05 -0.2 0.1
v 0.35 -0.2 0.1
v 0.45 -0.2 0.1
v -0.45 -0.2 -0.1
v -0.35 -0.2 -0.1
v -0.05 -0.2 -0.1
v 0.05 -0.2 -0.1
v 0.35 -0.2 -0.1
v 0.45 -0.2 -0.1
v -0.45 -0.2 -0.2
v -0.35 -0.2 -0.2
v -0.05 -0.2 -0.2
v 0.05 -0.2 -0.2
v 0.35 -0.2 -0.2
v 0.45 -0.2 -0.2
v -0.35 -0.1 0.2
v -0.05 -0.1 0.2
v 0.05 -0.1 0.2
v 0.35 -0.1 0.2
v -0.35 -0.1 0.1
v -0.05 -0.1 0.1
v 0.05 -0.1 0.1
v 0.35 -0.1 0.1
v -0.35 -0.1 -0.1
v -0.05 -0.1 -0.1
v 0.05 -0.1 -0.1
v 0.35 -0.1 -0.1
v -0.35 -0.1 -0.2
v -0.05 -0.1 -0.2
v 0.05 -0.1 -0.2
v 0.35 -0.1 -0.2
v -0.35 0.1 0.1
v -0.25 0.1 0.1
v 0.25 0.1 0.1
v 0.35 0.1 0.1
v -0.35 0.1 -0.1
v -0.25 0.1 -0.1
v 0.25 0.1 -0.1
v 0.35 0.1 -0.1
v -0.15 0.3 0.1
v 0.15 0.3 0.1
v -0.15 0.3 -0.1
v 0.15 0.3 -0.1
v -0.05 0.6 0.1
v 0.25 0.6 0.1
v -0.05 0.6 -0.1
v 0.25 0.6 -0.1
v -0.45 0.8 0.1
v -0.15 0.8 0.1
v -0.05 0.8 0.1
v 0.15 0.8 0.1
v -0.45 0.8 -0.1
v -0.15 0.8 -0.1
v -0.05 0.8 -0.1
v 0.15 0.8 -0.1
v 0.05 1 0.1
v 0.25 1 0.1
v 0.05 1 -0.1
v 0.25 1 -0.1
v -0.35 -1 0.2
v -0.05 -1 0.2
v 0.05 -1 0.2
v 0.35 -1 0.2
v -0.35 -1 0.1
v -0.05 -1 0.1
v 0.05 -1 0.1
v 0.35 -1 0.1
v -0.35 -1 -0.1
v -0.05 -1 -0.1
v 0.05 -1 -0.1
v 0.35 -1 -0.1
v -0.35 -1 -0.2
v -0.05 -1 -0.2
v 0.05 -1 -0.2
v 0.35 -1 -0.2
v -0.45 -0.9 0.2
v -0.35 -0.9 0.2
v -0.05 -0.9 0.2
v 0.05 -0.9 0.2
v 0.35 -0.9 0.2
v 0.45 -0.9 0.2
v -0.45 -0.9 0.1
v -0.35 -0.9 0.1
v -0.05 -0.9 0.1
v 0.05 -0.9 0.1
v 0.35 -0.9 0.1
v 0.45 -0.9 0.1
v -0.45 -0.9 -0.1
v -0.35 -0.9 -0.1
v -0.05 -0.9 -0.1
v 0.05 -0.9 -0.1
v 0.35 -0.9 -0.1
v 0.45 -0.9 -0.1
v -0.45 -0.9 -0.2
v -0.35 -0.9 -0.2
v -0.05 -0.9 -0.2
v 0.05 -0.9 -0.2
v 0.35 -0.9 -0.2
v 0.45 -0.9 -0.2
v -0.05 -0.6 0.2
v 0.25 -0.6 0.2
v -0.05 -0.6 0.1
v 0.25 -0.6 0.1
v -0.25 -0.6 -0.1
v 0.05 -0.6 -0.1
v -0.25 -0.6 -0.2
v 0.05 -0.6 -0.2
v -0.45 -0.5 0.2
v -0.35 -0.5 0.2
v 0.35 -0.5 0.2
v 0.45 -0.5 0.2
v -0.45 -0.5 0.1
v -0.35 -0.5 0.1
v 0.35 -0.5 0.1
v 0.45 -0.5 0.1
v -0.45 -0.5 -0.1
v -0.35 -0.5 -0.1
v 0.35 -0.5 -0.1
v 0.45 -0.5 -0.1
v -0.45 -0.5 -0.2
v -0.35 -0.5 -0.2
v 0.35 -0.5 -0.2
v 0.45 -0.5 -0.2
v -0.15 -0.3 0.2
v -0.05 -0.3 0.2
v -0.15 -0.3 0.1
v -0.05 -0.3 0.1
v 0.05 -0.3 -0.1
v 0.15 -0.3 -0.1
v 0.05 -0.3 -0.2
v 0.15 -0.3 -0.2
v -0.65 -0.2 0.2
v -0.55 -0.2 0.2
v 0.55 -0.2 0.2
v 0.65 -0.2 0.2
v -0.65 -0.2 -0.2
v -0.55 -0.2 -0.2
v 0.55 -0.2 -0.2
v 0.65 -0.2 -0.2
v -0.55 -0.1 0.2
v -0.45 -0.1 0.2
v 0.45 -0.1 0.2
v 0.55 -0.1 0.2
v -0.55 -0.1 -0.2
v -0.45 -0.1 -0.2
v 0.45 -0.1 -0.2
v 0.55 -0.1 -0.2
v -0.45 0 0.2
v 0.45 0 0.2
v -0.25 0 0.1
v 0.25 0 0.1
v -0.25 0 -0.1
v 0.25 0 -0.1
v -0.45 0 -0.2
v 0.45 0 -0.2
v -0.15 0.1 0.1
v 0.15 0.1 0.1
v -0.15 0.1 -0.1
v 0.15 0.1 -0.1
v -0.35 0.3 0.1
v -0.25 0.3 0.1
v 0.25 0.3 0.1
v 0.35 0.3 0.1
v -0.35 0.3 -0.1
v -0.25 0.3 -0.1
v 0.25 0.3 -0.1
v 0.35 0.3 -0.1
v -0.25 0.4 0.1
v 0.25 0.4 0.1
v -0.25 0.4 -0.1
v 0.25 0.4 -0.1
v -0.05 0.7 0.1
v 0.15 0.7 0.1
v -0.05 0.7 -0.1
v 0.15 0.7 -0.1
v -0.45 0.9 0.1
v -0.15 0.9 0.1
v 0.05 0.9 0.1
v 0.25 0.9 0.1
v -0.45 0.9 -0.1
v -0.15 0.9 -0.1
v 0.05 0.9 -0.1
v 0.25 0.9 -0.1
v -0.05 1.1 0.1
v 0.25 1.1 0.1
v -0.05 1.1 -0.1
v 0.25 1.1 -0.1

# faces
f 3/2/1 2/2/1 1/2/1
f 4/2/1 2/2/1 3/2/1
f 7/2/1 6/2/1 5/2/1
f 8/2/1 6/2/1 7/2/1
f 11/2/1 10/2/1 9/2/1
f 12/2/1 10/2/1 11/2/1
f 15/2/1 14/2/1 13/2/1
f 16/2/1 14/2/1 15/2/1
f 19/2/1 18/2/1 17/2/1
f 20/2/1 18/2/1 19/2/1
f 23/1/1 22/1/1 21/1/1
f 24/1/1 22/1/1 23/1/1
f 27/2/1 26/2/1 25/2/1
f 28/2/1 26/2/1 27/2/1
f 31/3/1 30/3/1 29/3/1
f 32/3/1 30/3/1 31/3/1
f 35/2/1 34/2/1 33/2/1
f 36/2/1 34/2/1 35/2/1
f 39/2/1 38/2/1 37/2/1
f 40/2/1 38/2/1 39/2/1
f 43/3/1 42/3/1 41/3/1
f 44/3/1 42/3/1 43/3/1
f 49/3/1 46/3/1 45/3/1
f 50/3/1 46/3/1 49/3/1
f 51/3/1 48/3/1 47/3/1
f 52/3/1 48/3/1 51/3/1
f 57/3/1 54/3/1 53/3/1
f 58/3/1 54/3/1 57/3/1
f 59/3/1 56/3/1 55/3/1
f 60/3/1 56/3/1 59/3/1
f 63/1/1 62/1/1 61/1/1
f 64/1/1 62/1/1 63/1/1
f 67/1/1 66/1/1 65/1/1
f 68/1/1 66/1/1 67/1/1
f 71/3/1 70/3/1 69/3/1
f 72/3/1 70/3/1 71/3/1
f 75/2/1 74/2/1 73/2/1
f 76/2/1 74/2/1 75/2/1
f 79/1/1 78/1/1 77/1/1
f 80/1/1 78/1/1 79/1/1
f 85/2/1 82/2/1 81/2/1
f 86/2/1 82/2/1 85/2/1
f 87/2/1 84/2/1 83/2/1
f 88/2/1 84/2/1 87/2/1
f 93/3/1 90/3/1 89/3/1
f 94/3/1 90/3/1 93/3/1
f 95/3/1 92/3/1 91/3/1
f 96/3/1 92/3/1 95/3/1
f 101/2/1 98/2/1 97/2/1
f 102/2/1 98/2/1 101/2/1
f 103/2/1 100/2/1 99/2/1
f 104/2/1 100/2/1 103/2/1
f 109/2/1 106/2/1 105/2/1
f 110/2/1 106/2/1 109/2/1
f 111/2/1 108/2/1 107/2/1
f 112/2/1 108/2/1 111/2/1
f 117/2/1 114/2/1 113/2/1
f 118/2/1 114/2/1 117/2/1
f 119/2/1 116/2/1 115/2/1
f 120/2/1 116/2/1 119/2/1
f 121/2/2 122/2/2 125/2/2
f 125/2/2 122/2/2 126/2/2
f 123/2/2 124/2/2 127/2/2
f 127/2/2 124/2/2 128/2/2
f 129/2/2 130/2/2 133/2/2
f 133/2/2 130/2/2 134/2/2
f 131/2/2 132/2/2 135/2/2
f 135/2/2 132/2/2 136/2/2
f 137/2/2 138/2/2 141/2/2
f 141/2/2 138/2/2 142/2/2
f 139/2/2 140/2/2 143/2/2
f 143/2/2 140/2/2 144/2/2
f 145/3/2 146/3/2 149/3/2
f 149/3/2 146/3/2 150/3/2
f 147/3/2 148/3/2 151/3/2
f 151/3/2 148/3/2 152/3/2
f 153/2/2 154/2/2 157/2/2
f 157/2/2 154/2/2 158/2/2
f 155/2/2 156/2/2 159/2/2
f 159/2/2 156/2/2 160/2/2
f 161/2/2 162/2/2 163/2/2
f 163/2/2 162/2/2 164/2/2
f 165/1/2 166/1/2 167/1/2
f 167/1/2 166/1/2 168/1/2
f 169/3/2 170/3/2 171/3/2
f 171/3/2 170/3/2 172/3/2
f 173/3/2 174/3/2 177/3/2
f 177/3/2 174/3/2 178/3/2
f 175/3/2 176/3/2 179/3/2
f 179/3/2 176/3/2 180/3/2
f 181/3/2 182/3/2 185/3/2
f 185/3/2 182/3/2 186/3/2
f 183/3/2 184/3/2 187/3/2
f 187/3/2 184/3/2 188/3/2
f 189/1/2 190/1/2 191/1/2
f 191/1/2 190/1/2 192/1/2
f 193/3/2 194/3/2 195/3/2
f 195/3/2 194/3/2 196/3/2
f 197/3/2 198/3/2 199/3/2
f 199/3/2 198/3/2 200/3/2
f 201/2/2 202/2/2 203/2/2
f 203/2/2 202/2/2 204/2/2
f 205/2/2 206/2/2 207/2/2
f 207/2/2 206/2/2 208/2/2
f 209/1/2 210/1/2 211/1/2
f 211/1/2 210/1/2 212/1/2
f 213/1/2 214/1/2 215/1/2
f 215/1/2 214/1/2 216/1/2
f 217/2/2 218/2/2 219/2/2
f 219/2/2 218/2/2 220/2/2
f 221/2/2 222/2/2 223/2/2
f 223/2/2 222/2/2 224/2/2
f 225/2/2 226/2/2 227/2/2
f 227/2/2 226/2/2 228/2/2
f 229/2/2 230/2/2 231/2/2
f 231/2/2 230/2/2 232/2/2
f 233/2/2 234/2/2 235/2/2
f 235/2/2 234/2/2 236/2/2
f 237/2/2 238/2/2 239/2/2
f 239/2/2 238/2/2 240/2/2
f 244/2/3 242/2/3 241/2/3
f 245/2/3 242/2/3 244/2/3
f 248/2/3 244/2/3 243/2/3
f 248/2/3 246/2/3 245/2/3
f 248/2/3 245/2/3 244/2/3
f 249/2/3 246/2/3 248/2/3
f 250/2/3 246/2/3 249/2/3
f 251/2/3 246/2/3 250/2/3
f 252/2/3 246/2/3 251/2/3
f 253/2/3 246/2/3 252/2/3
f 255/2/3 248/2/3 247/2/3
f 255/2/3 249/2/3 248/2/3
f 256/2/3 249/2/3 255/2/3
f 257/3/3 251/3/3 250/3/3
f 258/3/3 251/3/3 257/3/3
f 259/2/3 254/2/3 253/2/3
f 259/2/3 253/2/3 252/2/3
f 260/2/3 254/2/3 259/2/3
f 263/2/3 255/2/3 247/2/3
f 265/3/3 262/3/3 261/3/3
f 266/3/3 262/3/3 265/3/3
f 268/2/3 254/2/3 260/2/3
f 269/3/3 264/3/3 263/3/3
f 269/2/3 263/2/3 247/2/3
f 270/3/3 264/3/3 269/3/3
f 271/3/3 268/3/3 267/3/3
f 272/2/3 254/2/3 268/2/3
f 272/3/3 268/3/3 271/3/3
f 273/3/3 265/3/3 261/3/3
f 274/3/3 265/3/3 273/3/3
f 275/2/3 269/2/3 247/2/3
f 280/2/3 254/2/3 272/2/3
f 281/2/3 276/2/3 275/2/3
f 281/2/3 275/2/3 247/2/3
f 282/2/3 276/2/3 281/2/3
f 283/2/3 276/2/3 282/2/3
f 284/3/3 278/3/3 277/3/3
f 285/3/3 278/3/3 284/3/3
f 286/2/3 280/2/3 279/2/3
f 287/2/3 254/2/3 280/2/3
f 287/2/3 280/2/3 286/2/3
f 288/2/3 254/2/3 287/2/3
f 289/2/3 283/2/3 282/2/3
f 289/2/3 285/2/3 284/2/3
f 289/2/3 287/2/3 286/2/3
f 289/2/3 286/2/3 285/2/3
f 289/2/3 284/2/3 283/2/3
f 290/2/3 287/2/3 289/2/3
f 291/2/3 287/2/3 290/2/3
f 292/2/3 287/2/3 291/2/3
f 293/2/3 291/2/3 290/2/3
f 294/2/3 291/2/3 293/2/3
f 302/4/3 296/4/3 295/4/3
f 303/4/3 296/4/3 302/4/3
f 304/4/3 298/4/3 297/4/3
f 305/4/3 298/4/3 304/4/3
f 310/2/3 308/2/3 307/2/3
f 311/2/3 308/2/3 310/2/3
f 313/4/3 303/4/3 302/4/3
f 313/4/3 302/4/3 301/4/3
f 313/4/3 304/4/3 303/4/3
f 313/4/3 305/4/3 304/4/3
f 313/4/3 306/4/3 305/4/3
f 314/4/3 306/4/3 313/4/3
f 315/2/3 312/2/3 311/2/3
f 315/2/3 311/2/3 310/2/3
f 315/2/3 310/2/3 309/2/3
f 316/2/3 312/2/3 315/2/3
f 317/1/3 300/1/3 299/1/3
f 318/1/3 300/1/3 317/1/3
f 319/4/3 313/4/3 301/4/3
f 320/4/3 313/4/3 319/4/3
f 322/4/3 306/4/3 314/4/3
f 323/4/3 306/4/3 322/4/3
f 324/4/3 306/4/3 323/4/3
f 330/4/3 313/4/3 320/4/3
f 331/4/3 323/4/3 322/4/3
f 331/4/3 322/4/3 321/4/3
f 333/1/3 328/1/3 327/1/3
f 334/1/3 328/1/3 333/1/3
f 335/2/3 315/2/3 309/2/3
f 336/2/3 312/2/3 316/2/3
f 337/1/3 326/1/3 325/1/3
f 338/1/3 333/1/3 327/1/3
f 339/4/3 330/4/3 329/4/3
f 339/4/3 313/4/3 330/4/3
f 340/4/3 332/4/3 331/4/3
f 340/4/3 331/4/3 321/4/3
f 341/2/3 335/2/3 309/2/3
f 341/2/3 336/2/3 335/2/3
f 342/2/3 336/2/3 341/2/3
f 343/2/3 312/2/3 336/2/3
f 343/2/3 336/2/3 342/2/3
f 344/2/3 312/2/3 343/2/3
f 345/1/3 338/1/3 337/1/3
f 345/1/3 337/1/3 325/1/3
f 346/1/3 333/1/3 338/1/3
f 346/1/3 338/1/3 345/1/3
f 347/1/3 328/1/3 334/1/3
f 348/1/3 328/1/3 347/1/3
f 349/4/3 340/4/3 339/4/3
f 349/4/3 339/4/3 329/4/3
f 350/4/3 340/4/3 349/4/3
f 351/4/3 332/4/3 340/4/3
f 351/4/3 340/4/3 350/4/3
f 352/4/3 332/4/3 351/4/3
f 353/4/3 332/4/3 352/4/3
f 354/4/3 332/4/3 353/4/3
f 355/2/3 343/2/3 342/2/3
f 356/2/3 343/2/3 355/2/3
f 357/4/3 351/4/3 350/4/3
f 358/4/3 351/4/3 357/4/3
f 359/4/3 353/4/3 352/4/3
f 360/4/3 353/4/3 359/4/3
f 361/4/4 362/4/4 368/4/4
f 368/4/4 362/4/4 369/4/4
f 363/4/4 364/4/4 370/4/4
f 370/4/4 364/4/4 371/4/4
f 368/4/4 369/4/4 375/4/4
f 367/4/4 368/4/4 375/4/4
f 371/4/4 372/4/4 375/4/4
f 370/4/4 371/4/4 375/4/4
f 369/4/4 370/4/4 375/4/4
f 375/4/4 372/4/4 376/4/4
f 373/2/4 374/2/4 378/2/4
f 378/2/4 374/2/4 379/2/4
f 379/2/4 380/2/4 381/2/4
f 378/2/4 379/2/4 381/2/4
f 377/2/4 378/2/4 381/2/4
f 381/2/4 380/2/4 382/2/4
f 365/1/4 366/1/4 383/1/4
f 383/1/4 366/1/4 384/1/4
f 367/4/4 375/4/4 385/4/4
f 385/4/4 375/4/4 386/4/4
f 376/4/4 372/4/4 387/4/4
f 387/4/4 372/4/4 388/4/4
f 386/4/4 375/4/4 394/4/4
f 376/4/4 387/4/4 395/4/4
f 395/4/4 387/4/4 396/4/4
f 396/4/4 387/4/4 397/4/4
f 391/1/4 392/1/4 399/1/4
f 399/1/4 392/1/4 400/1/4
f 393/4/4 394/4/4 401/4/4
f 394/4/4 375/4/4 401/4/4
f 397/4/4 398/4/4 402/4/4
f 396/4/4 397/4/4 402/4/4
f 377/2/4 381/2/4 403/2/4
f 382/2/4 380/2/4 404/2/4
f 389/1/4 390/1/4 405/1/4
f 391/1/4 399/1/4 406/1/4
f 377/2/4 403/2/4 407/2/4
f 403/2/4 404/2/4 407/2/4
f 407/2/4 404/2/4 408/2/4
f 404/2/4 380/2/4 409/2/4
f 408/2/4 404/2/4 409/2/4
f 409/2/4 380/2/4 410/2/4
f 405/1/4 406/1/4 411/1/4
f 389/1/4 405/1/4 411/1/4
f 406/1/4 399/1/4 412/1/4
f 411/1/4 406/1/4 412/1/4
f 400/1/4 392/1/4 413/1/4
f 413/1/4 392/1/4 414/1/4
f 401/4/4 402/4/4 415/4/4
f 393/4/4 401/4/4 415/4/4
f 415/4/4 402/4/4 416/4/4
f 416/4/4 402/4/4 417/4/4
f 417/4/4 402/4/4 418/4/4
f 402/4/4 398/4/4 419/4/4
f 418/4/4 402/4/4 419/4/4
f 419/4/4 398/4/4 420/4/4
f 408/2/4 409/2/4 421/2/4
f 421/2/4 409/2/4 422/2/4
f 416/4/4 417/4/4 423/4/4
f 423/4/4 417/4/4 424/4/4
f 418/4/4 419/4/4 425/4/4
f 425/4/4 419/4/4 426/4/4
f 427/2/4 428/2/4 430/2/4
f 430/2/4 428/2/4 431/2/4
f 429/2/4 430/2/4 434/2/4
f 431/2/4 432/2/4 434/2/4
f 430/2/4 431/2/4 434/2/4
f 434/2/4 432/2/4 435/2/4
f 435/2/4 432/2/4 436/2/4
f 436/2/4 432/2/4 437/2/4
f 437/2/4 432/2/4 438/2/4
f 438/2/4 432/2/4 439/2/4
f 433/2/4 434/2/4 441/2/4
f 434/2/4 435/2/4 441/2/4
f 441/2/4 435/2/4 442/2/4
f 436/3/4 437/3/4 443/3/4
f 443/3/4 437/3/4 444/3/4
f 439/2/4 440/2/4 445/2/4
f 438/2/4 439/2/4 445/2/4
f 445/2/4 440/2/4 446/2/4
f 433/2/4 441/2/4 449/2/4
f 446/2/4 440/2/4 452/2/4
f 449/3/4 450/3/4 453/3/4
f 433/2/4 449/2/4 453/2/4
f 453/3/4 450/3/4 454/3/4
f 447/3/4 448/3/4 455/3/4
f 451/3/4 452/3/4 457/3/4
f 452/2/4 440/2/4 458/2/4
f 457/3/4 452/3/4 458/3/4
f 455/3/4 456/3/4 459/3/4
f 447/3/4 455/3/4 459/3/4
f 459/3/4 456/3/4 460/3/4
f 433/2/4 453/2/4 461/2/4
f 458/2/4 440/2/4 466/2/4
f 461/2/4 462/2/4 467/2/4
f 433/2/4 461/2/4 467/2/4
f 467/2/4 462/2/4 468/2/4
f 468/2/4 462/2/4 469/2/4
f 463/3/4 464/3/4 470/3/4
f 470/3/4 464/3/4 471/3/4
f 465/2/4 466/2/4 472/2/4
f 466/2/4 440/2/4 473/2/4
f 472/2/4 466/2/4 473/2/4
f 473/2/4 440/2/4 474/2/4
f 470/2/4 471/2/4 475/2/4
f 468/2/4 469/2/4 475/2/4
f 472/2/4 473/2/4 475/2/4
f 471/2/4 472/2/4 475/2/4
f 469/2/4 470/2/4 475/2/4
f 475/2/4 473/2/4 476/2/4
f 476/2/4 473/2/4 477/2/4
f 477/2/4 473/2/4 478/2/4
f 476/2/4 477/2/4 479/2/4
f 479/2/4 477/2/4 480/2/4
f 483/2/5 482/2/5 481/2/5
f 484/2/5 482/2/5 483/2/5
f 489/2/5 486/2/5 485/2/5
f 490/2/5 486/2/5 489/2/5
f 491/2/5 488/2/5 487/2/5
f 492/2/5 488/2/5 491/2/5
f 497/2/5 494/2/5 493/2/5
f 498/2/5 494/2/5 497/2/5
f 499/2/5 496/2/5 495/2/5
f 500/2/5 496/2/5 499/2/5
f 503/3/5 502/3/5 501/3/5
f 504/3/5 502/3/5 503/3/5
f 507/3/5 506/3/5 505/3/5
f 508/3/5 506/3/5 507/3/5
f 513/3/5 510/3/5 509/3/5
f 514/3/5 510/3/5 513/3/5
f 515/3/5 512/3/5 511/3/5
f 516/3/5 512/3/5 515/3/5
f 521/3/5 518/3/5 517/3/5
f 522/3/5 518/3/5 521/3/5
f 523/3/5 520/3/5 519/3/5
f 524/3/5 520/3/5 523/3/5
f 531/2/5 526/2/5 525/2/5
f 532/2/5 526/2/5 531/2/5
f 533/3/5 528/3/5 527/3/5
f 534/3/5 528/3/5 533/3/5
f 535/2/5 530/2/5 529/2/5
f 536/2/5 530/2/5 535/2/5
f 543/2/5 538/2/5 537/2/5
f 544/2/5 538/2/5 543/2/5
f 545/3/5 540/3/5 539/3/5
f 546/3/5 540/3/5 545/3/5
f 547/2/5 542/2/5 541/2/5
f 548/2/5 542/2/5 547/2/5
f 553/2/5 550/2/5 549/2/5
f 554/2/5 550/2/5 553/2/5
f 555/2/5 552/2/5 551/2/5
f 556/2/5 552/2/5 555/2/5
f 561/2/5 558/2/5 557/2/5
f 562/2/5 558/2/5 561/2/5
f 563/2/5 560/2/5 559/2/5
f 564/2/5 560/2/5 563/2/5
f 569/2/5 566/2/5 565/2/5
f 570/2/5 566/2/5 569/2/5
f 571/2/5 568/2/5 567/2/5
f 572/2/5 568/2/5 571/2/5
f 575/2/5 574/2/5 573/2/5
f 576/2/5 574/2/5 575/2/5
f 579/1/5 578/1/5 577/1/5
f 580/1/5 578/1/5 579/1/5
f 585/1/5 582/1/5 581/1/5
f 586/1/5 582/1/5 585/1/5
f 587/1/5 584/1/5 583/1/5
f 588/1/5 584/1/5 587/1/5
f 591/1/5 590/1/5 589/1/5
f 592/1/5 590/1/5 591/1/5
f 593/2/6 594/2/6 597/2/6
f 597/2/6 594/2/6 598/2/6
f 595/2/6 596/2/6 599/2/6
f 599/2/6 596/2/6 600/2/6
f 601/2/6 602/2/6 605/2/6
f 605/2/6 602/2/6 606/2/6
f 603/2/6 604/2/6 607/2/6
f 607/2/6 604/2/6 608/2/6
f 609/2/6 610/2/6 615/2/6
f 615/2/6 610/2/6 616/2/6
f 611/3/6 612/3/6 617/3/6
f 617/3/6 612/3/6 618/3/6
f 613/2/6 614/2/6 619/2/6
f 619/2/6 614/2/6 620/2/6
f 621/2/6 622/2/6 627/2/6
f 627/2/6 622/2/6 628/2/6
f 623/3/6 624/3/6 629/3/6
f 629/3/6 624/3/6 630/3/6
f 625/2/6 626/2/6 631/2/6
f 631/2/6 626/2/6 632/2/6
f 633/3/6 634/3/6 635/3/6
f 635/3/6 634/3/6 636/3/6
f 637/3/6 638/3/6 639/3/6
f 639/3/6 638/3/6 640/3/6
f 641/3/6 642/3/6 645/3/6
f 645/3/6 642/3/6 646/3/6
f 643/3/6 644/3/6 647/3/6
f 647/3/6 644/3/6 648/3/6
f 649/3/6 650/3/6 653/3/6
f 653/3/6 650/3/6 654/3/6
f 651/3/6 652/3/6 655/3/6
f 655/3/6 652/3/6 656/3/6
f 657/3/6 658/3/6 659/3/6
f 659/3/6 658/3/6 660/3/6
f 661/3/6 662/3/6 663/3/6
f 663/3/6 662/3/6 664/3/6
f 665/2/6 666/2/6 669/2/6
f 669/2/6 666/2/6 670/2/6
f 667/2/6 668/2/6 671/2/6
f 671/2/6 668/2/6 672/2/6
f 673/2/6 674/2/6 677/2/6
f 677/2/6 674/2/6 678/2/6
f 675/2/6 676/2/6 679/2/6
f 679/2/6 676/2/6 680/2/6
f 681/2/6 682/2/6 683/2/6
f 683/2/6 682/2/6 684/2/6
f 681/2/6 683/2/6 685/2/6
f 684/2/6 682/2/6 686/2/6
f 681/2/6 685/2/6 687/2/6
f 685/2/6 686/2/6 687/2/6
f 686/2/6 682/2/6 688/2/6
f 687/2/6 686/2/6 688/2/6
f 689/2/6 690/2/6 691/2/6
f 691/2/6 690/2/6 692/2/6
f 693/2/6 694/2/6 697/2/6
f 697/2/6 694/2/6 698/2/6
f 695/2/6 696/2/6 699/2/6
f 699/2/6 696/2/6 700/2/6
f 701/2/6 702/2/6 703/2/6
f 703/2/6 702/2/6 704/2/6
f 705/1/6 706/1/6 707/1/6
f 707/1/6 706/1/6 708/1/6
f 709/1/6 710/1/6 713/1/6
f 713/1/6 710/1/6 714/1/6
f 711/1/6 712/1/6 715/1/6
f 715/1/6 712/1/6 716/1/6
f 717/1/6 718/1/6 719/1/6
f 719/1/6 718/1/6 720/1/6
